<?xml version="1.0" encoding="UTF-8"?>
<svg version="1.1" xmlns="http://www.w3.org/2000/svg" width="512" height="512">
<path d="M0 0 C5.14892638 3.58186183 10.42392086 8.7119904 11.875 15 C12.55451748 21.00240438 11.03198989 25.03066407 7.875 30 C6.555 31.65 5.235 33.3 3.875 35 C10.475 41.6 17.075 48.2 23.875 55 C28.64483716 50.93242903 28.64483716 50.93242903 33.3125 46.75 C37.44288163 43.92925157 41.25005731 42.61489036 46.19140625 43.33984375 C48.84642327 44.06006506 51.32515598 44.96618072 53.875 46 C54.91914063 46.41636719 55.96328125 46.83273438 57.0390625 47.26171875 C65.41736318 50.98201041 65.41736318 50.98201041 67.44677734 55.49633789 C70.26779259 61.35553111 74.81852889 65.51614974 79.390625 70.046875 C80.32042175 70.98049866 81.25021851 71.91412231 82.20819092 72.8760376 C84.16866447 74.84237688 86.13610702 76.80138087 88.10888672 78.75537109 C90.62174374 81.24544037 93.11620809 83.75304362 95.60568619 86.26646042 C98.00343063 88.68223371 100.41641121 91.08254677 102.828125 93.484375 C103.71485901 94.37920593 104.60159302 95.27403687 105.51519775 96.19598389 C110.41012629 101.0180778 114.66950551 104.11721398 120.875 107 C122.69531483 109.51646703 123.76300649 112.11080258 124.875 115 C125.24625 115.81210938 125.6175 116.62421875 126 117.4609375 C128.41631649 122.91442957 129.65628223 127.04272298 128.875 133 C126.32280776 138.81899831 122.50715651 142.71915873 117.875 147 C119.33245424 150.36335594 121.18617854 152.54534005 123.7890625 155.109375 C124.54960937 155.86347656 125.31015625 156.61757812 126.09375 157.39453125 C126.8878125 158.17183594 127.681875 158.94914063 128.5 159.75 C129.30179687 160.54277344 130.10359375 161.33554688 130.9296875 162.15234375 C132.90702846 164.10614493 134.88888909 166.05512103 136.875 168 C140.28236003 166.38331641 142.95071362 164.38560204 145.875 162 C150.62213318 159.62643341 157.2090545 160.48740138 162.125 162 C166.42639271 165.12828561 170.47476274 169.19952548 172.875 174 C173.05000341 175.89061062 173.14224916 177.7893464 173.1875 179.6875 C173.22488281 180.70199219 173.26226562 181.71648437 173.30078125 182.76171875 C172.22035056 190.97893935 165.98336162 196.32702694 160.37792969 201.90112305 C159.52212814 202.76378784 158.6663266 203.62645264 157.78459167 204.51525879 C155.44909976 206.86585726 153.10709027 209.20953838 150.76118755 211.54972053 C148.79775211 213.51005278 146.83894417 215.47497699 144.88007569 217.43987113 C140.25612524 222.07783895 135.62445708 226.70799677 130.98779297 231.33325195 C126.217024 236.09254056 121.45917587 240.86446854 116.70756412 245.64287728 C112.61530136 249.75734543 108.515269 253.86395594 104.40895963 257.96440536 C101.96188962 260.40811638 99.51775622 262.85458362 97.08101654 265.30859947 C94.3618745 268.0461781 91.62658299 270.76726488 88.88964844 273.48706055 C88.0924791 274.29389786 87.29530975 275.10073517 86.47398376 275.93202209 C81.08121288 281.25446423 75.75299103 285.88138921 67.875 286.5 C61.56145939 286.11623577 56.70973948 283.23323423 52.5 278.625 C48.97760459 274.09483478 47.6250509 270.24921949 48 264.5 C48.60910476 260.18550794 50.15349823 257.4418993 52.875 254 C54.36 252.02 54.36 252.02 55.875 250 C49.275 243.4 42.675 236.8 35.875 230 C30.7095937 234.42688423 30.7095937 234.42688423 25.5625 238.875 C22.05611204 241.23314223 19.17335805 241.84539946 14.96484375 241.60546875 C7.33027692 240.10944112 -1.92801368 237.60181885 -7.22265625 231.63671875 C-8.5 229.25 -8.5 229.25 -9.3359375 227.015625 C-10.22176214 224.75282542 -11.31938428 223.59378371 -13.125 222 C-15.91323237 223.28923981 -18.11496602 224.68619531 -20.41015625 226.72265625 C-21.01738525 227.25640869 -21.62461426 227.79016113 -22.25024414 228.34008789 C-22.88953857 228.90848389 -23.52883301 229.47687988 -24.1875 230.0625 C-25.54062113 231.25119122 -26.8947935 232.43868682 -28.25 233.625 C-28.91257813 234.20507812 -29.57515625 234.78515625 -30.2578125 235.3828125 C-32.69437304 237.49313899 -35.18222858 239.53442314 -37.6875 241.5625 C-42.62886394 245.56300454 -47.45770418 249.68363037 -52.26782227 253.84008789 C-55.50163691 256.62998162 -58.77009649 259.35502925 -62.125 262 C-61.96902344 262.54527344 -61.81304687 263.09054687 -61.65234375 263.65234375 C-59.82260824 270.74105416 -59.42691178 276.66671573 -62.8125 283.3125 C-66.06852961 287.09653441 -69.39153719 289.42217906 -74.125 291 C-79.45742595 291.26225046 -83.05460805 290.82997027 -88.125 289 C-95.94797887 297.31697815 -103.75205584 305.64796053 -111.453125 314.078125 C-114.31377655 317.20643985 -117.1860975 320.3236772 -120.0625 323.4375 C-120.56160889 323.97785889 -121.06071777 324.51821777 -121.57495117 325.07495117 C-122.58620612 326.16964892 -123.59751812 327.26429396 -124.60888672 328.35888672 C-127.11514104 331.07177586 -129.62000446 333.78594859 -132.125 336.5 C-133.12499324 337.58333957 -134.12499324 338.66667291 -135.125 339.75 C-135.8675 340.554375 -135.8675 340.554375 -136.625 341.375 C-158.125 364.66666667 -179.625 387.95833333 -201.125 411.25 C-201.86810425 412.0551001 -201.86810425 412.0551001 -202.6262207 412.87646484 C-203.62196227 413.95509026 -204.61789198 415.03354203 -205.61401367 416.11181641 C-208.70891631 419.46255893 -211.79605071 422.82028079 -214.87915039 426.18188477 C-216.39755952 427.83160547 -217.92420931 429.47330019 -219.453125 431.11328125 C-221.01015487 432.79551089 -222.55061974 434.49396112 -224.046875 436.23046875 C-229.11840938 441.89368214 -235.23402852 444.2811754 -242.703125 445.37890625 C-250.60579674 445.76409937 -257.67216341 443.14858978 -263.9375 438.375 C-270.15329055 432.43906732 -272.43203857 426.01621022 -272.75 417.5 C-272.14373723 403.73507941 -264.55059649 396.66979771 -254.98681641 387.70068359 C-252.40852291 385.34553115 -249.77295038 383.05927951 -247.13598633 380.77026367 C-243.80900185 377.8415318 -240.59552394 374.79473551 -237.375 371.75 C-231.63685663 366.34763096 -225.86564591 360.98740086 -220.046875 355.671875 C-216.91856015 352.81122345 -213.8013228 349.9389025 -210.6875 347.0625 C-210.14714111 346.56339111 -209.60678223 346.06428223 -209.05004883 345.55004883 C-207.95535108 344.53879388 -206.86070604 343.52748188 -205.76611328 342.51611328 C-203.05322414 340.00985896 -200.33905141 337.50499554 -197.625 335 C-196.54166043 334.00000676 -195.45832709 333.00000676 -194.375 332 C-179.20833333 318 -164.04166667 304 -148.875 290 C-148.33842773 289.50467773 -147.80185547 289.00935547 -147.24902344 288.49902344 C-146.16904521 287.50217041 -145.08896757 286.50542507 -144.00878906 285.50878906 C-141.24828469 282.96152824 -138.489698 280.41224029 -135.734375 277.859375 C-135.17637207 277.34318604 -134.61836914 276.82699707 -134.04345703 276.29516602 C-132.94372934 275.27670296 -131.84570385 274.25639835 -130.74951172 273.23413086 C-126.8193302 269.58415785 -122.74972334 266.14178681 -118.5390625 262.81640625 C-116.84165734 261.07038026 -116.84165734 261.07038026 -117.37890625 258.6484375 C-117.62511719 257.77445312 -117.87132812 256.90046875 -118.125 256 C-118.58349966 250.41532383 -118.90342646 245.61451415 -116.4375 240.5 C-112.72403458 236.48544279 -109.52719057 233.25179724 -103.85546875 232.83203125 C-103.01628906 232.82558594 -102.17710937 232.81914062 -101.3125 232.8125 C-100.48105469 232.79832031 -99.64960938 232.78414062 -98.79296875 232.76953125 C-95.67677231 233.03871952 -93.05008508 233.91964011 -90.125 235 C-84.72504221 229.11493962 -79.52748329 223.11595593 -74.5 216.91015625 C-71.95008545 213.78567214 -69.35769114 210.70121031 -66.75 207.625 C-66.29737793 207.0877832 -65.84475586 206.55056641 -65.37841797 205.99707031 C-62.93702688 203.10592665 -60.46516509 200.24890678 -57.9453125 197.42578125 C-57.43145996 196.8416748 -56.91760742 196.25756836 -56.38818359 195.65576172 C-55.39883323 194.53232708 -54.39948131 193.41760165 -53.38916016 192.31298828 C-50.7548666 189.43436697 -50.7548666 189.43436697 -50.2578125 185.7265625 C-51.34693766 183.55812412 -52.17939438 182.49163097 -54.125 181 C-55.23875 180.64035156 -56.3525 180.28070313 -57.5 179.91015625 C-61.44718515 178.25213423 -62.58495466 176.05399643 -64.1796875 172.1953125 C-64.45039063 171.47085938 -64.72109375 170.74640625 -65 170 C-65.29390625 169.27554688 -65.5878125 168.55109375 -65.890625 167.8046875 C-68.11879445 162.26492677 -69.62616553 158.0139863 -69.125 152 C-66.53462011 146.19754905 -62.75913808 142.28267255 -58.125 138 C-59.58245424 134.63664406 -61.43617854 132.45465995 -64.0390625 129.890625 C-64.79960937 129.13652344 -65.56015625 128.38242188 -66.34375 127.60546875 C-67.1378125 126.82816406 -67.931875 126.05085938 -68.75 125.25 C-69.55179688 124.45722656 -70.35359375 123.66445312 -71.1796875 122.84765625 C-73.15702846 120.89385507 -75.13888909 118.94487897 -77.125 117 C-79.62822225 118.18517741 -81.50385493 119.30493201 -83.6875 121.0625 C-88.34298848 124.76301649 -93.41597375 124.60919487 -99.125 124 C-104.80094296 122.15975287 -108.79709452 117.81317873 -112.125 113 C-113.11354183 110.0343745 -113.35510095 107.85514307 -113.4375 104.75 C-113.49357422 103.38101563 -113.49357422 103.38101563 -113.55078125 101.984375 C-112.39525837 93.88511371 -106.04927034 88.48972262 -100.52026367 82.99121094 C-99.65310226 82.11718628 -98.78594086 81.24316162 -97.89250183 80.34265137 C-95.52608742 77.96112996 -93.15315247 75.58652362 -90.77632689 73.21541882 C-88.78794445 71.23013864 -86.80418777 69.24026782 -84.8203724 67.25042558 C-80.13893035 62.55496676 -75.4497705 57.86731692 -70.75561523 53.18457031 C-65.92233925 48.36278222 -61.10199606 43.52833888 -56.2878744 38.687433 C-52.14381329 34.52118623 -47.99200409 30.36277449 -43.83390409 26.2105391 C-41.35500646 23.73500423 -38.87906092 21.25669531 -36.41048241 18.77086639 C-33.65758987 15.99957625 -30.8885955 13.24472741 -28.11791992 10.49121094 C-27.30780457 9.67142761 -26.49768921 8.85164429 -25.6630249 8.00701904 C-18.10052426 0.54223108 -10.66314852 -3.41220753 0 0 Z " fill="#873F30" transform="translate(272.125,34)"/>
<path d="M0 0 C0.79633144 -0.0060911 1.59266288 -0.01218221 2.41312557 -0.01845789 C5.07854608 -0.03509224 7.74348909 -0.03031152 10.40895081 -0.0255127 C12.32111609 -0.03285274 14.23327695 -0.04143878 16.14543152 -0.05117798 C21.33756066 -0.07340855 26.52953118 -0.07632391 31.72170138 -0.07443047 C36.05581355 -0.07431084 40.389892 -0.08287147 44.72399479 -0.09120798 C54.94826729 -0.11044732 65.17245813 -0.1133238 75.39674377 -0.10656738 C85.94588827 -0.09992463 96.49468329 -0.12279927 107.0437569 -0.15988111 C116.10037264 -0.19056207 125.15687585 -0.20193992 134.21354252 -0.1980443 C139.62293176 -0.19597529 145.03204903 -0.20147973 150.44138908 -0.22593689 C155.5280107 -0.24817509 160.61406336 -0.24635045 165.70068741 -0.22600937 C167.5671298 -0.22259424 169.43361028 -0.22771002 171.30000114 -0.24199295 C173.8491034 -0.26015399 176.39626899 -0.24746131 178.9453125 -0.22705078 C179.68315977 -0.23956863 180.42100704 -0.25208648 181.18121332 -0.26498365 C186.86972071 -0.16739272 189.1870884 1.50118692 193.03614807 5.39440918 C194.18269289 7.68749881 194.23343924 9.19350574 194.35255432 11.74597168 C194.39444885 12.59675293 194.43634338 13.44753418 194.47950745 14.32409668 C194.51882385 15.2135498 194.55814026 16.10300293 194.59864807 17.01940918 C194.64183167 17.91659668 194.68501526 18.81378418 194.72950745 19.73815918 C194.83571668 21.95675201 194.93776002 24.17545798 195.03614807 26.39440918 C195.83536682 26.5413623 196.63458557 26.68831543 197.45802307 26.83972168 C214.88823934 30.39941373 227.3047748 38.92110145 237.27613831 53.54431152 C240.44474204 58.67543651 242.92708183 64.09495274 245.41114807 69.58190918 C245.94353088 70.71821777 246.4759137 71.85452637 247.02442932 73.02526855 C253.02139533 86.11025164 253.02139533 86.11025164 250.91114807 93.14440918 C248.85023505 96.71665841 247.67762143 97.6278946 244.03614807 99.39440918 C241.43959188 99.77045667 241.43959188 99.77045667 238.60910797 99.7719326 C237.52586699 99.77975584 236.44262601 99.78757909 235.32655954 99.7956394 C234.14223133 99.78894723 232.95790311 99.78225507 231.73768616 99.77536011 C230.47512418 99.78004008 229.21256221 99.78472005 227.91174078 99.78954184 C224.40952292 99.80207099 220.90755015 99.79587288 217.40533137 99.78658319 C213.62749361 99.77980083 209.84969826 99.79026987 206.0718689 99.79852295 C198.67199921 99.81187119 191.27222075 99.8089777 183.87234747 99.80028503 C177.85896214 99.79351318 171.8456024 99.7925896 165.83221436 99.79585648 C164.54901602 99.79654602 164.54901602 99.79654602 163.23989448 99.7972495 C161.5020978 99.79820867 159.76430112 99.79918131 158.02650446 99.80016728 C141.72658525 99.80872437 125.42671663 99.79888204 109.12680572 99.78276618 C95.13708851 99.7693627 81.14744597 99.77169071 67.1577301 99.78552246 C50.9166149 99.80157264 34.67554405 99.80790036 18.43442202 99.79868567 C16.70297528 99.79773001 14.97152854 99.7967869 13.24008179 99.79585648 C12.38815021 99.79539365 11.53621864 99.79493082 10.65847096 99.79445397 C4.65147389 99.7918624 -1.35549508 99.79623869 -7.36248779 99.80329514 C-14.6818199 99.8117041 -22.00105548 99.80944275 -29.32037652 99.7934529 C-33.05567624 99.78556201 -36.79081494 99.78249242 -40.52611351 99.79240036 C-44.57267955 99.8029717 -48.61883809 99.79035957 -52.66539001 99.77536011 C-54.44188234 99.78539836 -54.44188234 99.78539836 -56.2542634 99.7956394 C-57.87912487 99.78390453 -57.87912487 99.78390453 -59.53681183 99.7719326 C-60.47087152 99.77144554 -61.40493121 99.77095849 -62.36729574 99.77045667 C-66.26110587 99.20653376 -68.88703719 97.35982929 -71.77635193 94.76940918 C-73.66964782 90.98281741 -73.57006454 87.48625469 -72.96385193 83.39440918 C-71.53586014 79.24389992 -69.75756235 75.30755888 -67.84910583 71.35681152 C-66.97329615 69.53901129 -66.12902613 67.70901802 -65.28807068 65.87487793 C-57.10242037 48.54388039 -46.81152557 36.71951302 -28.96385193 29.39440918 C-24.99730502 28.16925449 -21.03970142 27.17822639 -16.96385193 26.39440918 C-16.92646912 25.15304199 -16.8890863 23.9116748 -16.85057068 22.63269043 C-16.78489242 20.99073406 -16.71844573 19.34880831 -16.65135193 17.70690918 C-16.62879333 16.89028809 -16.60623474 16.07366699 -16.58299255 15.2322998 C-16.37424501 10.54496859 -16.09666602 7.12197385 -12.96385193 3.39440918 C-8.77843939 0.21117508 -5.0851422 -0.03660865 0 0 Z " fill="#873F30" transform="translate(251.96385192871094,379.6055908203125)"/>
<path d="M0 0 C2.95265112 1.32994383 5.02350216 2.77779316 7.29980469 5.07275391 C8.23031647 6.00349228 8.23031647 6.00349228 9.17962646 6.95303345 C9.83706848 7.62079803 10.4945105 8.28856262 11.171875 8.9765625 C12.1955014 10.00443375 12.1955014 10.00443375 13.23980713 11.05307007 C15.41461598 13.23905845 17.58236072 15.43190429 19.75 17.625 C21.2247999 19.10983255 22.70005506 20.59421306 24.17578125 22.078125 C27.78915448 25.7135291 31.39620853 29.35509824 35 33 C31.10679785 41.32830328 21.92446303 46.9436567 14.9140625 52.62109375 C11.76576376 55.19121967 8.65987489 57.80648075 5.5625 60.4375 C-0.59259883 65.66434638 -6.78838477 70.84044212 -13 76 C-12.84402344 76.54527344 -12.68804687 77.09054687 -12.52734375 77.65234375 C-10.69760824 84.74105416 -10.30191178 90.66671573 -13.6875 97.3125 C-16.94352961 101.09653441 -20.26653719 103.42217906 -25 105 C-30.33242595 105.26225046 -33.92960805 104.82997027 -39 103 C-46.82297887 111.31697815 -54.62705584 119.64796053 -62.328125 128.078125 C-65.18877655 131.20643985 -68.0610975 134.3236772 -70.9375 137.4375 C-71.43660889 137.97785889 -71.93571777 138.51821777 -72.44995117 139.07495117 C-73.46120612 140.16964892 -74.47251812 141.26429396 -75.48388672 142.35888672 C-77.99014104 145.07177586 -80.49500446 147.78594859 -83 150.5 C-83.99999324 151.58333957 -84.99999324 152.66667291 -86 153.75 C-86.7425 154.554375 -86.7425 154.554375 -87.5 155.375 C-109 178.66666667 -130.5 201.95833333 -152 225.25 C-152.49540283 225.7867334 -152.99080566 226.3234668 -153.5012207 226.87646484 C-154.49696227 227.95509026 -155.49289198 229.03354203 -156.48901367 230.11181641 C-159.58391631 233.46255893 -162.67105071 236.82028079 -165.75415039 240.18188477 C-167.27255952 241.83160547 -168.79920931 243.47330019 -170.328125 245.11328125 C-171.88515487 246.79551089 -173.42561974 248.49396112 -174.921875 250.23046875 C-179.99340938 255.89368214 -186.10902852 258.2811754 -193.578125 259.37890625 C-201.48079674 259.76409937 -208.54716341 257.14858978 -214.8125 252.375 C-221.02829055 246.43906732 -223.30703857 240.01621022 -223.625 231.5 C-223.01873723 217.73507941 -215.42559649 210.66979771 -205.86181641 201.70068359 C-203.28352291 199.34553115 -200.64795038 197.05927951 -198.01098633 194.77026367 C-194.68400185 191.8415318 -191.47052394 188.79473551 -188.25 185.75 C-182.51185663 180.34763096 -176.74064591 174.98740086 -170.921875 169.671875 C-167.79356015 166.81122345 -164.6763228 163.9389025 -161.5625 161.0625 C-160.75196167 160.31383667 -160.75196167 160.31383667 -159.92504883 159.55004883 C-158.83035108 158.53879388 -157.73570604 157.52748188 -156.64111328 156.51611328 C-153.92822414 154.00985896 -151.21405141 151.50499554 -148.5 149 C-147.41666043 148.00000676 -146.33332709 147.00000676 -145.25 146 C-122.5 125 -122.5 125 -99.75 104 C-99.21342773 103.50467773 -98.67685547 103.00935547 -98.12402344 102.49902344 C-97.04404521 101.50217041 -95.96396757 100.50542507 -94.88378906 99.50878906 C-92.12328469 96.96152824 -89.364698 94.41224029 -86.609375 91.859375 C-86.05137207 91.34318604 -85.49336914 90.82699707 -84.91845703 90.29516602 C-83.81872934 89.27670296 -82.72070385 88.25639835 -81.62451172 87.23413086 C-77.6943302 83.58415785 -73.62472334 80.14178681 -69.4140625 76.81640625 C-67.71665734 75.07038026 -67.71665734 75.07038026 -68.25390625 72.6484375 C-68.50011719 71.77445312 -68.74632812 70.90046875 -69 70 C-69.45849966 64.41532383 -69.77842646 59.61451415 -67.3125 54.5 C-63.59903458 50.48544279 -60.40219057 47.25179724 -54.73046875 46.83203125 C-53.47169922 46.82236328 -53.47169922 46.82236328 -52.1875 46.8125 C-50.94033203 46.79123047 -50.94033203 46.79123047 -49.66796875 46.76953125 C-46.55177231 47.03871952 -43.92508508 47.91964011 -41 49 C-35.60004221 43.11493962 -30.40248329 37.11595593 -25.375 30.91015625 C-22.82510768 27.78569938 -20.23366821 24.70035656 -17.625 21.625 C-16.9438916 20.8213501 -16.9438916 20.8213501 -16.24902344 20.00146484 C-13.80088171 17.11547908 -11.34708676 14.23437447 -8.890625 11.35546875 C-8.13338135 10.46577393 -8.13338135 10.46577393 -7.36083984 9.55810547 C-6.38895863 8.41631272 -5.41539203 7.27595188 -4.43994141 6.13720703 C-1.96098553 3.24654188 -1.96098553 3.24654188 0 0 Z " fill="#873E2F" transform="translate(223,220)"/>
<path d="M0 0 C3.13590752 2.36318389 4.22821662 5.66773843 5.6328125 9.23046875 C6.00535156 10.04386719 6.37789062 10.85726562 6.76171875 11.6953125 C9.17339465 17.1488932 10.41391746 21.2745434 9.6328125 27.23046875 C7.08062026 33.04946706 3.26496901 36.94962748 -1.3671875 41.23046875 C0.09026674 44.59382469 1.94399104 46.7758088 4.546875 49.33984375 C5.30742187 50.09394531 6.06796875 50.84804687 6.8515625 51.625 C8.04265625 52.79095703 8.04265625 52.79095703 9.2578125 53.98046875 C10.05960938 54.77324219 10.86140625 55.56601563 11.6875 56.3828125 C13.66484096 58.33661368 15.64670159 60.28558978 17.6328125 62.23046875 C21.04017253 60.61378516 23.70852612 58.61607079 26.6328125 56.23046875 C31.37994568 53.85690216 37.966867 54.71787013 42.8828125 56.23046875 C47.18420521 59.35875436 51.23257524 63.42999423 53.6328125 68.23046875 C53.80781591 70.12107937 53.90006166 72.01981515 53.9453125 73.91796875 C54.00138672 75.43970703 54.00138672 75.43970703 54.05859375 76.9921875 C52.97816306 85.2094081 46.74117412 90.55749569 41.13574219 96.1315918 C40.27994064 96.99425659 39.4241391 97.85692139 38.54240417 98.74572754 C36.20691226 101.09632601 33.86490277 103.44000713 31.51900005 105.78018928 C29.55556461 107.74052153 27.59675667 109.70544574 25.63788819 111.67033988 C21.01393774 116.3083077 16.38226958 120.93846552 11.74560547 125.5637207 C6.9748365 130.32300931 2.21698837 135.09493729 -2.53462338 139.87334603 C-6.62688614 143.98781418 -10.7269185 148.09442469 -14.83322787 152.19487411 C-17.28029788 154.63858513 -19.72443128 157.08505237 -22.16117096 159.53906822 C-24.880313 162.27664685 -27.61560451 164.99773363 -30.35253906 167.7175293 C-31.1497084 168.52436661 -31.94687775 169.33120392 -32.76820374 170.16249084 C-38.16097462 175.48493298 -43.48919647 180.11185796 -51.3671875 180.73046875 C-57.68072811 180.34670452 -62.53244802 177.46370298 -66.7421875 172.85546875 C-70.26458291 168.32530353 -71.6171366 164.47968824 -71.2421875 158.73046875 C-70.63308274 154.41597669 -69.08868927 151.67236805 -66.3671875 148.23046875 C-65.3771875 146.91046875 -64.3871875 145.59046875 -63.3671875 144.23046875 C-69.9671875 137.63046875 -76.5671875 131.03046875 -83.3671875 124.23046875 C-88.5325938 128.65735298 -88.5325938 128.65735298 -93.6796875 133.10546875 C-97.18289121 135.46146948 -100.06574079 136.06597531 -104.26953125 135.8515625 C-108.46855393 135.00963992 -112.32875715 133.61724604 -116.3046875 132.04296875 C-117.05089355 131.75196289 -117.79709961 131.46095703 -118.56591797 131.16113281 C-121.86055802 129.75912635 -124.01718124 128.62017327 -126.43359375 125.9296875 C-127.69805181 122.27386943 -127.2290336 119.98838895 -126.3671875 116.23046875 C-124.44649124 113.56310558 -124.44649124 113.56310558 -121.87677002 110.99833679 C-121.40575135 110.52007488 -120.93473268 110.04181296 -120.44944072 109.54905826 C-118.87506968 107.95784436 -117.28026294 106.38890111 -115.68457031 104.8190918 C-114.54842421 103.67972529 -113.41357859 102.53906073 -112.27993774 101.39720154 C-109.20246694 98.30520753 -106.10660273 95.23225946 -103.00667667 92.1627996 C-99.7640148 88.94651637 -96.5372072 85.71439858 -93.30828857 82.48432922 C-87.88432076 77.06316968 -82.44886823 71.65374692 -77.00585938 66.25170898 C-70.71392906 60.00696544 -64.43782658 53.74666998 -58.17054868 47.47719163 C-51.49621717 40.80083332 -44.81051285 34.13595411 -38.12141323 27.47439599 C-36.19536338 25.55473821 -34.27145254 23.63295858 -32.34799957 21.71069908 C-29.32469063 18.69040518 -26.29384068 15.67788364 -23.25699997 12.67119789 C-22.14384961 11.56680475 -21.03321581 10.45986843 -19.92530441 9.35021973 C-18.41220186 7.83564287 -16.89019053 6.33062082 -15.36553955 4.8276825 C-14.09126539 3.56094964 -14.09126539 3.56094964 -12.79124832 2.26862621 C-8.4405959 -1.38941513 -5.3449142 -2.64931894 0 0 Z " fill="#6C3328" transform="translate(391.3671875,139.76953125)"/>
<path d="M0 0 C5.71700538 4.75136274 10.97689423 9.84614587 16.21484375 15.1171875 C17.49845543 16.4029216 17.49845543 16.4029216 18.80799866 17.71463013 C21.52020465 20.43239954 24.2288983 23.15363891 26.9375 25.875 C28.78427369 27.72679342 30.63127653 29.57835834 32.47851562 31.4296875 C36.98833201 35.95048435 41.49527569 40.47412946 46 45 C45.01 45.66 44.02 46.32 43 47 C36.28771973 52.45791095 30.21966465 58.6192432 24.10180664 64.72119141 C23.02855002 65.78816922 21.95510932 66.85496191 20.88150024 67.92158508 C17.38752874 71.39471327 13.8987149 74.8729989 10.41015625 78.3515625 C9.2041635 79.55350277 7.99813851 80.7554107 6.79208183 81.95728683 C1.13356269 87.59681182 -4.52258266 93.23870423 -10.17579359 98.88355029 C-16.6925822 105.39053422 -23.21759798 111.88912252 -29.74958891 118.38084471 C-34.80896842 123.41010207 -39.8606833 128.44697555 -44.90668207 133.48965776 C-47.91707059 136.49769498 -50.93067997 139.50233007 -53.95243645 142.49895096 C-56.78890095 145.31219271 -59.6157606 148.13473779 -62.43548203 150.96475792 C-63.47166569 152.00143817 -64.51128306 153.03469933 -65.55454063 154.06426048 C-66.97741612 155.46949196 -68.38683879 156.88830651 -69.79551697 158.30776978 C-70.98425368 159.49292396 -70.98425368 159.49292396 -72.19700527 160.70202065 C-74.15853072 163.20205291 -74.6639008 164.87343957 -75 168 C-78.61006725 165.05300633 -81.94704726 162.18185876 -84.93359375 158.6015625 C-89.76732065 153.00779946 -95.01774366 147.83275006 -100.25195312 142.61767578 C-101.999859 140.87514057 -103.74234063 139.12730913 -105.484375 137.37890625 C-110.82372866 132.03669671 -116.1440645 126.78348219 -122 122 C-120.515 121.01 -120.515 121.01 -119 120 C-112.28489554 114.54388361 -106.2263507 108.37505999 -100.11767578 102.26293945 C-99.04605977 101.19432152 -97.97424106 100.12590682 -96.90223694 99.05767822 C-94.01388742 96.17809913 -91.1287283 93.29534452 -88.24444056 90.41169763 C-86.4405258 88.60849644 -84.63589971 86.8060103 -82.83102036 85.00377464 C-76.5303325 78.71231161 -70.23220584 72.41829792 -63.93652344 66.12182617 C-58.07201796 60.25671814 -52.20193714 54.39723117 -46.32925999 48.54030639 C-41.27840863 43.50252015 -36.23140949 38.46089667 -31.18740642 33.41625375 C-28.17835109 30.40694346 -25.16776332 27.39920644 -22.15329361 24.39531898 C-19.32363919 21.57533012 -16.49880498 18.75060114 -13.67762566 15.9221344 C-12.64172181 14.88518334 -11.60410571 13.84993956 -10.56466484 12.81653404 C-9.14673788 11.40630919 -7.7355575 9.98931055 -6.32473755 8.57197571 C-5.5331682 7.78095113 -4.74159885 6.98992655 -3.92604256 6.17493153 C-2.15189593 4.17152438 -1.04188443 2.44763931 0 0 Z " fill="#FAA52F" transform="translate(340,93)"/>
<path d="M0 0 C3.54822446 0.57881268 5.18422803 1.82692359 7.671875 4.37890625 C8.33574219 5.05244141 8.99960938 5.72597656 9.68359375 6.41992188 C10.36550781 7.12697266 11.04742187 7.83402344 11.75 8.5625 C12.79607422 9.62887695 12.79607422 9.62887695 13.86328125 10.71679688 C15.5824658 12.47130714 17.29425872 14.23243352 19 16 C17.16418619 19.94420538 14.59683587 22.8076678 11.625 25.9375 C10.53373304 27.10275116 9.44259064 28.26811898 8.3515625 29.43359375 C7.7937207 30.02640137 7.23587891 30.61920898 6.66113281 31.22998047 C4.08951196 33.97017023 1.54543399 36.73550901 -1 39.5 C-1.99985105 40.58347081 -2.99985151 41.66680375 -4 42.75 C-4.7425 43.554375 -4.7425 43.554375 -5.5 44.375 C-35 76.33333333 -64.5 108.29166667 -94 140.25 C-94.49540283 140.7867334 -94.99080566 141.3234668 -95.5012207 141.87646484 C-96.49696227 142.95509026 -97.49289198 144.03354203 -98.48901367 145.11181641 C-101.58391631 148.46255893 -104.67105071 151.82028079 -107.75415039 155.18188477 C-109.27255952 156.83160547 -110.79920931 158.47330019 -112.328125 160.11328125 C-113.88515487 161.79551089 -115.42561974 163.49396112 -116.921875 165.23046875 C-121.99340938 170.89368214 -128.10902852 173.2811754 -135.578125 174.37890625 C-143.62137377 174.77095139 -150.71579938 172.12089946 -156.9375 167.0625 C-159.53523268 164.63018898 -161.53113663 162.28334166 -163 159 C-163 157.68 -163 156.36 -163 155 C-162.10539063 155.05800781 -161.21078125 155.11601562 -160.2890625 155.17578125 C-151.73178631 155.4950826 -146.254529 154.4831359 -139 150 C-138.29101562 149.69835937 -137.58203125 149.39671875 -136.8515625 149.0859375 C-134.50843029 147.7116954 -134.14820972 146.42941671 -133 144 C-131.6511558 142.53852319 -130.24936232 141.1250352 -128.8125 139.75 C-125.27668222 136.3566057 -122.04639806 132.79626986 -118.84057617 129.09667969 C-115.89185135 125.73766009 -112.82030613 122.49757089 -109.75 119.25 C-104.34763096 113.51185663 -98.98740086 107.74064591 -93.671875 101.921875 C-90.81122345 98.79356015 -87.9389025 95.6763228 -85.0625 92.5625 C-84.56339111 92.02214111 -84.06428223 91.48178223 -83.55004883 90.92504883 C-82.53879388 89.83035108 -81.52748188 88.73570604 -80.51611328 87.64111328 C-78.00985896 84.92822414 -75.50499554 82.21405141 -73 79.5 C-72.00000676 78.41666043 -71.00000676 77.33332709 -70 76.25 C-69.505 75.71375 -69.01 75.1775 -68.5 74.625 C-28 30.75 -28 30.75 -26.4987793 29.1237793 C-25.50271299 28.04463986 -24.50678113 26.9653763 -23.51098633 25.88598633 C-20.95191114 23.11243307 -18.3902581 20.34133128 -15.82421875 17.57421875 C-10.46339508 11.78873441 -5.13694738 5.98707599 0 0 Z " fill="#6C3328" transform="translate(165,305)"/>
<path d="M0 0 C5.14892638 3.58186183 10.42392086 8.7119904 11.875 15 C12.56002227 21.05103007 11.05547062 24.98976933 7.875 30 C5.65040967 32.5453368 3.18724684 34.752932 0.65063477 36.98266602 C-0.7969559 38.29741281 -2.24252287 39.6143906 -3.68624878 40.93338013 C-4.42466381 41.60473621 -5.16307884 42.2760923 -5.92387009 42.96779251 C-9.42184464 46.19732024 -12.79625751 49.5458397 -16.16430664 52.90991211 C-16.83770804 53.58124963 -17.51110945 54.25258715 -18.20491695 54.94426823 C-20.3171549 57.05314663 -22.42630329 59.16508083 -24.53515625 61.27734375 C-26.04237107 62.78388226 -27.54973407 64.29027254 -29.05723572 65.79652405 C-32.18227568 68.92010602 -35.30554143 72.04544772 -38.42749023 75.17211914 C-42.41141129 79.16177629 -46.39986083 83.14687158 -50.3896265 87.13068295 C-53.48935771 90.22679066 -56.58669124 93.3252882 -59.68331718 96.42450142 C-61.15327212 97.89511862 -62.62395688 99.36500674 -64.09541512 100.8341198 C-66.14946477 102.88560889 -68.20024718 104.94031177 -70.25024414 106.99584961 C-70.84514145 107.58872269 -71.44003876 108.18159576 -72.05296326 108.79243469 C-75.74813472 112.50598062 -79.22266607 116.35241982 -82.60961056 120.34975529 C-85.92437067 123.95949757 -89.32783088 124.13540158 -94 124.375 C-100.00057975 124.22365007 -103.62986579 122.48384401 -107.8515625 118.28125 C-111.77605664 113.8917684 -113.27877529 110.73141551 -113.4375 104.75 C-113.47488281 103.83734375 -113.51226562 102.9246875 -113.55078125 101.984375 C-112.39525837 93.88511371 -106.04927034 88.48972262 -100.52026367 82.99121094 C-99.21952156 81.68017395 -99.21952156 81.68017395 -97.89250183 80.34265137 C-95.52608742 77.96112996 -93.15315247 75.58652362 -90.77632689 73.21541882 C-88.78794445 71.23013864 -86.80418777 69.24026782 -84.8203724 67.25042558 C-80.13893035 62.55496676 -75.4497705 57.86731692 -70.75561523 53.18457031 C-65.92233925 48.36278222 -61.10199606 43.52833888 -56.2878744 38.687433 C-52.14381329 34.52118623 -47.99200409 30.36277449 -43.83390409 26.2105391 C-41.35500646 23.73500423 -38.87906092 21.25669531 -36.41048241 18.77086639 C-33.65758987 15.99957625 -30.8885955 13.24472741 -28.11791992 10.49121094 C-27.30780457 9.67142761 -26.49768921 8.85164429 -25.6630249 8.00701904 C-18.10052426 0.54223108 -10.66314852 -3.41220753 0 0 Z " fill="#873E2F" transform="translate(272.125,34)"/>
<path d="M0 0 C4.30139271 3.12828561 8.34976274 7.19952548 10.75 12 C10.92500341 13.89061062 11.01724916 15.7893464 11.0625 17.6875 C11.11857422 19.20923828 11.11857422 19.20923828 11.17578125 20.76171875 C10.09535056 28.97893935 3.85836162 34.32702694 -1.74707031 39.90112305 C-2.60287186 40.76378784 -3.4586734 41.62645264 -4.34040833 42.51525879 C-6.67590024 44.86585726 -9.01790973 47.20953838 -11.36381245 49.54972053 C-13.32724789 51.51005278 -15.28605583 53.47497699 -17.24492431 55.43987113 C-21.86887476 60.07783895 -26.50054292 64.70799677 -31.13720703 69.33325195 C-35.907976 74.09254056 -40.66582413 78.86446854 -45.41743588 83.64287728 C-49.50969864 87.75734543 -53.609731 91.86395594 -57.71604037 95.96440536 C-60.16311038 98.40811638 -62.60724378 100.85458362 -65.04398346 103.30859947 C-67.7631255 106.0461781 -70.49841701 108.76726488 -73.23535156 111.48706055 C-74.0325209 112.29389786 -74.82969025 113.10073517 -75.65101624 113.93202209 C-81.04378712 119.25446423 -86.37200897 123.88138921 -94.25 124.5 C-100.56354061 124.11623577 -105.41526052 121.23323423 -109.625 116.625 C-113.75209795 111.3171247 -114.52453181 106.91083114 -113.9296875 100.34375 C-112.09640251 94.02207761 -107.25604704 89.8842106 -102.51953125 85.63623047 C-94.09403169 77.92325544 -86.00694563 69.90275747 -77.9375 61.8203125 C-76.42885604 60.31234465 -74.92006388 58.80452505 -73.41113281 57.29684448 C-70.2801158 54.16728686 -67.15087654 51.03596593 -64.02294922 47.90332031 C-60.0311499 43.90578991 -56.03482909 39.91281435 -52.03718567 35.92112923 C-48.93316301 32.82073053 -45.83153865 29.71794139 -42.73062134 26.6144371 C-41.25787538 25.14102875 -39.78439923 23.66834984 -38.31015015 22.19644547 C-36.25120171 20.14005778 -34.19552089 18.08045582 -32.140625 16.02001953 C-31.54415665 15.42557541 -30.94768829 14.83113129 -30.33314514 14.21867371 C-26.66293306 10.53025766 -23.24154712 6.71338274 -19.92962646 2.69851494 C-14.65960873 -2.63076752 -6.736987 -2.07291908 0 0 Z " fill="#6B3327" transform="translate(434.25,196)"/>
<path d="M0 0 C0.79633144 -0.0060911 1.59266288 -0.01218221 2.41312557 -0.01845789 C5.07854608 -0.03509224 7.74348909 -0.03031152 10.40895081 -0.0255127 C12.32111609 -0.03285274 14.23327695 -0.04143878 16.14543152 -0.05117798 C21.33756066 -0.07340855 26.52953118 -0.07632391 31.72170138 -0.07443047 C36.05581355 -0.07431084 40.389892 -0.08287147 44.72399479 -0.09120798 C54.94826729 -0.11044732 65.17245813 -0.1133238 75.39674377 -0.10656738 C85.94588827 -0.09992463 96.49468329 -0.12279927 107.0437569 -0.15988111 C116.10037264 -0.19056207 125.15687585 -0.20193992 134.21354252 -0.1980443 C139.62293176 -0.19597529 145.03204903 -0.20147973 150.44138908 -0.22593689 C155.5280107 -0.24817509 160.61406336 -0.24635045 165.70068741 -0.22600937 C167.5671298 -0.22259424 169.43361028 -0.22771002 171.30000114 -0.24199295 C173.8491034 -0.26015399 176.39626899 -0.24746131 178.9453125 -0.22705078 C179.68315977 -0.23956863 180.42100704 -0.25208648 181.18121332 -0.26498365 C186.86972071 -0.16739272 189.1870884 1.50118692 193.03614807 5.39440918 C196.31910067 11.96031438 194.03614807 20.053504 194.03614807 27.39440918 C124.73614807 27.06440918 55.43614807 26.73440918 -15.96385193 26.39440918 C-15.96385193 8.39440918 -15.96385193 8.39440918 -12.96385193 3.39440918 C-8.90151743 0.07767818 -5.04805382 -0.03634165 0 0 Z " fill="#BA5C4E" transform="translate(251.96385192871094,379.6055908203125)"/>
<path d="M0 0 C5.43733055 4.52991796 10.46458931 9.34294216 15.4375 14.375 C16.16904297 15.11105469 16.90058594 15.84710938 17.65429688 16.60546875 C19.43852723 18.40136074 21.22036124 20.19955985 23 22 C-17.33333333 62.33333333 -57.66666667 102.66666667 -98 143 C-100.79930543 141.6515307 -102.82426385 140.41194413 -104.98828125 138.171875 C-105.52686768 137.62168701 -106.0654541 137.07149902 -106.62036133 136.50463867 C-107.17876709 135.92560791 -107.73717285 135.34657715 -108.3125 134.75 C-112.7092466 130.26446761 -117.12277953 125.96983061 -122 122 C-120.515 121.01 -120.515 121.01 -119 120 C-112.28489554 114.54388361 -106.2263507 108.37505999 -100.11767578 102.26293945 C-99.04605977 101.19432152 -97.97424106 100.12590682 -96.90223694 99.05767822 C-94.01388742 96.17809913 -91.1287283 93.29534452 -88.24444056 90.41169763 C-86.4405258 88.60849644 -84.63589971 86.8060103 -82.83102036 85.00377464 C-76.5303325 78.71231161 -70.23220584 72.41829792 -63.93652344 66.12182617 C-58.07201796 60.25671814 -52.20193714 54.39723117 -46.32925999 48.54030639 C-41.27840863 43.50252015 -36.23140949 38.46089667 -31.18740642 33.41625375 C-28.17835109 30.40694346 -25.16776332 27.39920644 -22.15329361 24.39531898 C-19.32363919 21.57533012 -16.49880498 18.75060114 -13.67762566 15.9221344 C-12.64172181 14.88518334 -11.60410571 13.84993956 -10.56466484 12.81653404 C-9.14673788 11.40630919 -7.7355575 9.98931055 -6.32473755 8.57197571 C-5.5331682 7.78095113 -4.74159885 6.98992655 -3.92604256 6.17493153 C-2.15189593 4.17152438 -1.04188443 2.44763931 0 0 Z " fill="#FBC06C" transform="translate(340,93)"/>
<path d="M0 0 C7.33333333 7.33333333 14.66666667 14.66666667 22 22 C20.6557376 24.98768547 19.16581905 27.08924027 16.8631897 29.41096497 C16.21833115 30.06579865 15.5734726 30.72063232 14.90907288 31.39530945 C14.20254074 32.10250626 13.49600861 32.80970306 12.76806641 33.53833008 C12.02317459 34.29154541 11.27828278 35.04476074 10.51081848 35.82080078 C8.04652436 38.30919519 5.5746309 40.7898587 3.1015625 43.26953125 C1.38756589 44.99249082 -0.32635111 46.71552959 -2.04019165 48.43864441 C-5.63276869 52.04771175 -9.22971737 55.65236094 -12.82910156 59.25463867 C-17.4503984 63.88133363 -22.05530722 68.52398279 -26.65643883 73.1707201 C-30.18924957 76.73319631 -33.73318422 80.28444253 -37.28035355 83.83261681 C-38.98376375 85.54024656 -40.68303218 87.25201792 -42.37812424 88.96790504 C-44.74358442 91.36007243 -47.1241632 93.73609374 -49.50927734 96.10864258 C-50.21176102 96.82596054 -50.91424469 97.5432785 -51.63801575 98.28233337 C-52.28851395 98.92306793 -52.93901215 99.56380249 -53.60922241 100.22395325 C-54.45153192 101.06927974 -54.45153192 101.06927974 -55.31085777 101.93168354 C-57 103 -57 103 -59.06879616 102.79534435 C-61.92478076 101.61913955 -63.61033935 99.7240772 -65.765625 97.52734375 C-67.09980469 96.17866211 -67.09980469 96.17866211 -68.4609375 94.80273438 C-69.84152344 93.38444336 -69.84152344 93.38444336 -71.25 91.9375 C-72.19461673 90.97783027 -73.13992195 90.01883771 -74.0859375 89.06054688 C-76.39749172 86.71361172 -78.7017634 84.35996609 -81 82 C-76.69682388 76.85750993 -72.1865617 72.0478993 -67.43408203 67.32055664 C-66.3354911 66.22174667 -66.3354911 66.22174667 -65.21470642 65.10073853 C-62.81477343 62.70149725 -60.41132745 60.30580871 -58.0078125 57.91015625 C-56.3346507 56.23886127 -54.66171085 54.56734408 -52.98898315 52.89561462 C-48.60182061 48.51225649 -44.21166243 44.13191075 -39.82086182 39.75219727 C-35.3344815 35.27607582 -30.85095708 30.79709574 -26.3671875 26.31835938 C-17.58090901 17.54278157 -8.7914614 8.77038529 0 0 Z " fill="#A24E40" transform="translate(388,181)"/>
<path d="M0 0 C2.85598461 1.1762048 4.54154319 3.07126715 6.69682884 5.2680006 C7.58628197 6.1671217 8.47573509 7.06624279 9.39214134 7.99260998 C10.31253197 8.93813732 11.23292259 9.88366467 12.18120384 10.85784435 C13.12582057 11.81751409 14.07112579 12.77650664 15.01714134 13.73479748 C17.32869557 16.08173263 19.63296724 18.43537826 21.93120384 20.79534435 C17.62802773 25.93783442 13.11776555 30.74744505 8.36528587 35.47478771 C7.63289192 36.20732769 6.90049797 36.93986767 6.14591026 37.69460583 C3.74597728 40.09384711 1.34253129 42.48953564 -1.06098366 44.8851881 C-2.73414545 46.55648308 -4.40708531 48.22800028 -6.079813 49.89972973 C-10.46697555 54.28308786 -14.85713373 58.6634336 -19.24793434 63.04314709 C-23.73431466 67.51926853 -28.21783907 71.99824861 -32.70160866 76.47698498 C-41.48788714 85.25256278 -50.27733476 94.02495906 -59.06879616 102.79534435 C-66.40212949 95.46201102 -73.73546282 88.12867769 -81.06879616 80.79534435 C-79.72453375 77.80765888 -78.23461521 75.70610408 -75.93198586 73.38437939 C-75.2871273 72.72954571 -74.64226875 72.07471203 -73.97786903 71.4000349 C-73.2713369 70.6928381 -72.56480476 69.98564129 -71.83686256 69.25701427 C-71.09197075 68.50379894 -70.34707893 67.75058361 -69.57961464 66.97454357 C-67.11532052 64.48614916 -64.64342705 62.00548565 -62.17035866 59.5258131 C-60.45636204 57.80285354 -58.74244505 56.07981476 -57.02860451 54.35669994 C-53.43602747 50.7476326 -49.83907878 47.14298341 -46.2396946 43.54070568 C-41.61839776 38.91401073 -37.01348894 34.27136157 -32.41235733 29.62462425 C-28.87954658 26.06214805 -25.33561194 22.51090182 -21.78844261 18.96272755 C-20.08503241 17.25509779 -18.38576398 15.54332643 -16.69067192 13.82743931 C-14.32521173 11.43527192 -11.94463296 9.05925061 -9.55951881 6.68670177 C-8.85703514 5.96938381 -8.15455147 5.25206585 -7.43078041 4.51301098 C-6.78028221 3.87227642 -6.12978401 3.23154186 -5.45957375 2.57139111 C-4.89803408 2.00784011 -4.33649441 1.44428911 -3.75793839 0.86366081 C-2.06879616 -0.20465565 -2.06879616 -0.20465565 0 0 Z " fill="#B95C4E" transform="translate(275.0687961578369,69.20465564727783)"/>
<path d="M0 0 C2.95265112 1.32994383 5.02350216 2.77779316 7.29980469 5.07275391 C7.92014587 5.69324615 8.54048706 6.3137384 9.17962646 6.95303345 C9.83706848 7.62079803 10.4945105 8.28856262 11.171875 8.9765625 C12.1955014 10.00443375 12.1955014 10.00443375 13.23980713 11.05307007 C15.41461598 13.23905845 17.58236072 15.43190429 19.75 17.625 C21.2247999 19.10983255 22.70005506 20.59421306 24.17578125 22.078125 C27.78915448 25.7135291 31.39620853 29.35509824 35 33 C31.10597091 41.33007226 21.92107942 46.94526477 14.91015625 52.625 C10.122548 56.53220244 5.4233949 60.54320734 0.71435547 64.54443359 C-2.29112433 67.09622376 -5.30216495 69.64144135 -8.3125 72.1875 C-9.41278403 73.11846168 -10.51304671 74.04944858 -11.61328125 74.98046875 C-12.40089844 75.64691406 -13.18851563 76.31335938 -14 77 C-18.69017742 73.09151881 -23.05066053 69.02043854 -27.30078125 64.63671875 C-28.91671284 62.91730963 -28.91671284 62.91730963 -31 62 C-31 61.34 -31 60.68 -31 60 C-31.53625 59.79375 -32.0725 59.5875 -32.625 59.375 C-35.87338889 57.4943538 -38.91978735 55.16192322 -41 52 C-40.55209373 48.83943339 -39.48337109 47.0652688 -37.375 44.71484375 C-36.8380249 44.10761475 -36.3010498 43.50038574 -35.74780273 42.87475586 C-35.17102783 42.23546143 -34.59425293 41.59616699 -34 40.9375 C-32.80218673 39.5843935 -31.60557654 38.23022107 -30.41015625 36.875 C-29.82379395 36.21242188 -29.23743164 35.54984375 -28.63330078 34.8671875 C-26.50824151 32.43782229 -24.46595646 29.94785495 -22.4375 27.4375 C-18.9749162 23.15718424 -15.41271786 18.97661405 -11.8125 14.8125 C-7.66585396 10.0112916 -3.70968546 5.15234092 0 0 Z " fill="#6D3328" transform="translate(223,220)"/>
<path d="M0 0 C7.34189839 7.66272299 11.92444419 16.77893943 16.26171875 26.359375 C16.79410156 27.49568359 17.32648438 28.63199219 17.875 29.80273438 C23.87196601 42.88771746 23.87196601 42.88771746 21.76171875 49.921875 C19.67786249 53.53389252 18.61025548 54.44580217 14.88671875 56.171875 C11.47338867 56.51245117 11.47338867 56.51245117 7.6171875 56.46484375 C6.93618484 56.46059891 6.25518219 56.45635406 5.55354309 56.45198059 C3.39335416 56.4352811 1.23412233 56.39764812 -0.92578125 56.359375 C-2.39647083 56.34431674 -3.86717514 56.33063034 -5.33789062 56.31835938 C-8.92999482 56.28540714 -12.52154451 56.23368673 -16.11328125 56.171875 C-15.32695312 55.55828125 -14.540625 54.9446875 -13.73046875 54.3125 C-10.91235112 52.00753215 -9.49094147 50.53948887 -8.11328125 47.171875 C-8.3084614 39.50661812 -11.38998915 33.27947314 -14.61328125 26.421875 C-15.15500977 25.26260498 -15.69673828 24.10333496 -16.25488281 22.90893555 C-20.09271444 14.88741461 -23.99101061 7.70074806 -30.11328125 1.171875 C-30.72042969 0.50929688 -31.32757813 -0.15328125 -31.953125 -0.8359375 C-39.64728418 -8.35116275 -50.5844357 -13.19433862 -61.11328125 -14.828125 C-61.11328125 -15.158125 -61.11328125 -15.488125 -61.11328125 -15.828125 C-37.02567684 -17.37944714 -18.53413822 -17.060713 0 0 Z " fill="#6C3328" transform="translate(481.11328125,422.828125)"/>
<path d="M0 0 C3.3031364 2.348897 5.65695224 5.02177207 8.19921875 8.16015625 C9.86935241 10.22560289 9.86935241 10.22560289 12.8125 12 C12.8125 12.66 12.8125 13.32 12.8125 14 C13.40796631 14.27312012 14.00343262 14.54624023 14.61694336 14.82763672 C18.08609247 16.68006127 20.59763588 19.37575317 23.375 22.125 C23.95185547 22.66898437 24.52871094 23.21296875 25.12304688 23.7734375 C29.74851883 28.34022412 32.47199638 32.97586627 33.02734375 39.5390625 C32.35340189 44.60786463 31.24044226 48.01617521 27.8125 52 C22.81906744 55.77055112 19.28679144 57.0788706 13.04296875 57.328125 C6.51926917 56.36842138 2.32662001 51.94504573 -2.08203125 47.46875 C-3.03126717 46.52026184 -3.03126717 46.52026184 -3.99967957 45.5526123 C-5.32851143 44.22144986 -6.65367584 42.88661734 -7.9753418 41.54833984 C-10.00212173 39.49785345 -12.04201392 37.46112909 -14.08398438 35.42578125 C-15.37579591 34.12839617 -16.66683892 32.83024532 -17.95703125 31.53125 C-18.87256523 30.61708313 -18.87256523 30.61708313 -19.80659485 29.68444824 C-24.24885673 25.16672894 -25.35063031 22.43744221 -25.5 16.1875 C-25.44928439 10.93209524 -24.86331864 7.97385799 -21.1875 4 C-14.93917114 -1.6387358 -7.98591373 -2.5053847 0 0 Z " fill="#B95C4E" transform="translate(179.1875,268)"/>
<path d="M0 0 C17.78407877 14.75700153 17.78407877 14.75700153 19 23 C19.21619121 29.03276424 18.00839794 33.34159158 14 38 C9.00656744 41.77055112 5.47429144 43.0788706 -0.76953125 43.328125 C-8.05659693 42.25612234 -12.51529173 36.84357231 -17.375 31.8125 C-18.11105469 31.06291016 -18.84710938 30.31332031 -19.60546875 29.54101562 C-21.41066643 27.70065176 -23.20845508 25.85364077 -25 24 C-24.34 23.67 -23.68 23.34 -23 23 C-22.34 23.33 -21.68 23.66 -21 24 C-15.15221613 24.39645992 -11.24839909 23.9269918 -6 21 C-1.37696556 16.1270718 0.27060524 12.44784112 0.125 5.75 C0.09792969 4.13351562 0.09792969 4.13351562 0.0703125 2.484375 C0.04710937 1.66453125 0.02390625 0.8446875 0 0 Z " fill="#A34F41" transform="translate(193,282)"/>
<path d="M0 0 C1.12894876 0.93274109 2.25300876 1.87140122 3.375 2.8125 C4.00148437 3.33457031 4.62796875 3.85664063 5.2734375 4.39453125 C8.17781853 7.09521135 9.34929291 9.30162888 9.5625 13.1875 C9.41059645 17.0473978 8.69912064 18.85966512 6.078125 21.68359375 C5.12595093 22.71528687 5.12595093 22.71528687 4.15454102 23.76782227 C0.21241681 27.85199695 -3.77863254 31.8814402 -7.8125 35.875 C-8.67037109 36.72835937 -9.52824219 37.58171875 -10.41210938 38.4609375 C-11.98688408 40.02703917 -13.56268911 41.59210605 -15.13989258 43.15576172 C-16.42944191 44.43430951 -17.71593966 45.71593966 -19 47 C-19 46.34 -19 45.68 -19 45 C-19.53625 44.79375 -20.0725 44.5875 -20.625 44.375 C-23.87338889 42.4943538 -26.91978735 40.16192322 -29 37 C-28.55209373 33.83943339 -27.48337109 32.0652688 -25.375 29.71484375 C-24.8375415 29.10705078 -24.30008301 28.49925781 -23.74633789 27.87304688 C-23.17004639 27.23431641 -22.59375488 26.59558594 -22 25.9375 C-20.80998091 24.59352453 -19.62118532 23.24846476 -18.43359375 21.90234375 C-17.84819824 21.24089355 -17.26280273 20.57944336 -16.65966797 19.89794922 C-13.66161475 16.46946058 -10.81213291 12.92528491 -7.9453125 9.38671875 C-5.35366152 6.20700239 -2.68647628 3.09978033 0 0 Z " fill="#873E30" transform="translate(211,235)"/>
<path d="M0 0 C4.04128452 -0.1457733 8.08188906 -0.23423181 12.125 -0.3125 C13.83816406 -0.3753418 13.83816406 -0.3753418 15.5859375 -0.43945312 C25.09006383 -0.5775945 25.09006383 -0.5775945 28.7421875 2.39453125 C31.67186837 5.77532215 32.12520396 7.21777444 32.09765625 11.5703125 C32.09515869 12.37742676 32.09266113 13.18454102 32.09008789 14.01611328 C32.08098389 15.0420459 32.07187988 16.06797852 32.0625 17.125 C32.041875 20.38375 32.02125 23.6425 32 27 C24.41 26.67 16.82 26.34 9 26 C8.625 17.3125 8.625 17.3125 8.52197266 14.6027832 C8.22911142 8.56478538 8.22911142 8.56478538 6 3 C2.97017694 1.62810173 2.97017694 1.62810173 0 1 C0 0.67 0 0.34 0 0 Z " fill="#A34F41" transform="translate(414,380)"/>
<path d="M0 0 C3.36974432 2.41742527 4.79208769 3.89113433 5.5625 8 C5.10375449 13.75980473 3.45398488 19.79670827 1 25 C-1.97621014 27.29850624 -3.28096585 28.01467417 -7.0625 27.9375 C-10.52366286 26.83287356 -11.94502229 26.00342896 -14 23 C-15.14207644 16.29030089 -12.6806356 9.12243932 -10 3 C-6.73941821 -0.09787811 -4.48416324 -0.73210828 0 0 Z " fill="#FCC16C" transform="translate(458,318)"/>
<path d="M0 0 C1.9375 1.0625 1.9375 1.0625 3 3 C3.71681759 7.22922378 3.9640355 9.54341084 1.5703125 13.16015625 C-0.20832668 15.20215616 -2.06693856 17.10475933 -4 19 C-4.66 19.804375 -5.32 20.60875 -6 21.4375 C-8.95421169 23.74547789 -11.29530706 23.93500539 -15 24 C-17.94755732 22.65437601 -19.54277272 21.91445456 -21 19 C-21.56722154 15.4548654 -21.65495309 13.02615795 -19.68359375 9.9375 C-8.94144417 -2.75121359 -8.94144417 -2.75121359 0 0 Z " fill="#FCC26A" transform="translate(489,339)"/>
<path d="M0 0 C2.12195313 3.53658855 2.41132481 6.48188609 1.5 10.5 C-2.26780548 15.3072001 -8.70392637 16.5110196 -14.5 17.5 C-18.36065977 17.66428339 -21.39758952 17.39570851 -24.5 14.875 C-25.91219248 11.52104287 -25.95019252 9.10154012 -25.5 5.5 C-20.30103689 -0.95388524 -7.37883243 -4.42729946 0 0 Z " fill="#FCC16C" transform="translate(510.5,369.5)"/>
</svg>
