<?xml version="1.0" standalone="no"?>
<!DOCTYPE svg PUBLIC "-//W3C//DTD SVG 20010904//EN"
 "http://www.w3.org/TR/2001/REC-SVG-20010904/DTD/svg10.dtd">
<svg version="1.0" xmlns="http://www.w3.org/2000/svg"
 width="512.000000pt" height="512.000000pt" viewBox="0 0 512.000000 512.000000"
 preserveAspectRatio="xMidYMid meet">

<g transform="translate(0.000000,512.000000) scale(0.100000,-0.100000)"
fill="#000000" stroke="none">
<path d="M2560 4770 c-33 -16 -159 -135 -479 -453 -238 -238 -446 -452 -462
-476 -24 -37 -29 -56 -29 -103 0 -33 6 -71 14 -87 20 -37 89 -99 121 -107 47
-12 133 1 158 23 57 53 63 52 144 -28 41 -41 83 -89 95 -107 l20 -33 -44 -47
c-67 -72 -76 -101 -55 -181 27 -102 66 -173 104 -188 31 -12 34 -11 90 36 70
58 1133 1123 1146 1148 15 27 15 27 33 12 9 -8 1 11 -18 40 -31 49 -43 58
-114 89 -84 37 -153 44 -196 21 -13 -6 -47 -32 -76 -57 l-54 -45 -100 102
-101 102 21 22 c33 36 62 104 62 143 0 50 -33 111 -82 153 -52 45 -128 53
-198 21z"/>
<path d="M3845 3740 c-50 -37 -1177 -1170 -1186 -1192 -7 -17 -17 -27 -25 -24
-24 9 6 -46 44 -81 33 -31 117 -65 193 -78 46 -8 91 11 151 64 25 22 50 41 55
41 4 0 52 -44 106 -98 87 -88 96 -100 82 -112 -9 -7 -28 -33 -42 -57 -89 -153
99 -348 258 -268 46 23 913 888 947 944 37 63 35 146 -5 204 -43 62 -92 90
-161 91 -52 1 -65 -3 -114 -36 l-56 -37 -97 100 -98 99 45 52 c58 69 68 88 68
138 0 50 -54 192 -84 217 -29 26 -69 42 -81 33z"/>
<path d="M2220 2918 c0 -7 -17 -34 -38 -59 -61 -75 -242 -289 -305 -361 -57
-63 -61 -66 -89 -56 -49 17 -148 6 -185 -21 -54 -40 -67 -76 -61 -174 l6 -86
-37 -29 c-52 -43 -138 -121 -507 -461 -181 -168 -439 -406 -574 -530 -418
-385 -430 -399 -430 -539 0 -122 44 -196 147 -244 122 -57 247 -35 335 61 73
79 870 942 1122 1214 180 195 242 257 255 251 33 -14 121 -16 151 -4 43 18 98
83 106 125 6 36 1 105 -11 136 -4 12 61 72 237 219 165 137 242 207 240 218
-2 10 -65 79 -140 155 -138 140 -222 209 -222 185z"/>
<path d="M3320 1320 c-691 -4 -890 -8 -907 -18 -35 -20 -46 -50 -58 -151 l-10
-93 -75 -22 c-174 -50 -310 -177 -404 -378 -82 -176 -94 -228 -60 -276 38 -55
-57 -52 1618 -52 l1546 0 32 29 c30 27 33 34 33 88 0 52 -8 73 -72 203 -39 80
-91 169 -116 198 -81 97 -177 157 -318 197 l-56 16 -8 101 c-6 95 -9 104 -36
129 -34 32 -69 40 -158 37 -36 -2 -464 -5 -951 -8z"/>
</g>
</svg>
